<svg xmlns="http://www.w3.org/2000/svg" viewBox="0 0 108.03 108.03"><g id="Layer_2" data-name="Layer 2"><g id="Layer_1-2" data-name="Layer 1"><path d="M54,0h0s0,0,0,0a0,0,0,0,0,0,0Z"/><path d="M30,6s0,0,0,0,0,0,0,0l0,0S30,6,30,6Z"/><circle cx="36.02" cy="6.02" r="0.08"/><path d="M42,6.22a.2.2,0,1,0-.2-.2A.2.2,0,0,0,42,6.22Z"/><path d="M48,6.3a.29.29,0,0,0,0-.57.29.29,0,1,0,0,.57Z"/><path d="M54,6.33a.32.32,0,0,0,0-.63.32.32,0,1,0,0,.63Z"/><path d="M60,6.32a.31.31,0,0,0,.3-.3.3.3,0,0,0-.3-.3.29.29,0,0,0-.3.3A.3.3,0,0,0,60,6.32Z"/><circle cx="66.02" cy="6.02" r="0.22"/><path d="M72,6.12a.11.11,0,0,0,.1-.1.1.1,0,0,0-.1-.1.09.09,0,0,0-.1.1A.1.1,0,0,0,72,6.12Z"/><path d="M78,6s0,0,0,0,0,0,0,0l0,0S78,6,78,6Z"/><path d="M24,12.08a.06.06,0,0,0,.06-.06A.07.07,0,0,0,24,12,.07.07,0,0,0,24,12,.07.07,0,0,0,24,12.08Z"/><path d="M30,12.3a.29.29,0,0,0,0-.57.29.29,0,1,0,0,.57Z"/><circle cx="36.02" cy="12.02" r="0.48"/><path d="M42,12.67a.65.65,0,1,0-.65-.65A.65.65,0,0,0,42,12.67Z"/><circle cx="48.02" cy="12.02" r="0.75"/><path d="M54,12.8a.79.79,0,1,0-.79-.78A.78.78,0,0,0,54,12.8Z"/><circle cx="60.02" cy="12.02" r="0.75"/><circle cx="66.02" cy="12.02" r="0.67"/><path d="M72,12.52a.51.51,0,0,0,.5-.5.5.5,0,0,0-.5-.5.5.5,0,0,0-.5.5A.5.5,0,0,0,72,12.52Z"/><path d="M78,12.32a.31.31,0,0,0,.3-.3.3.3,0,0,0-.3-.3.29.29,0,0,0-.3.3A.3.3,0,0,0,78,12.32Z"/><circle cx="84.02" cy="12.02" r="0.08"/><path d="M18,18.12a.11.11,0,0,0,.1-.1.1.1,0,0,0-.1-.1.09.09,0,0,0-.1.1A.1.1,0,0,0,18,18.12Z"/><circle cx="24.02" cy="18.02" r="0.4"/><path d="M30,18.7a.69.69,0,1,0-.69-.68A.69.69,0,0,0,30,18.7Z"/><path d="M36,18.93A.92.92,0,1,0,35.1,18,.91.91,0,0,0,36,18.93Z"/><path d="M42,19.1a1.08,1.08,0,1,0,0-2.16,1.08,1.08,0,0,0,0,2.16Z"/><path d="M48,19.21a1.2,1.2,0,0,0,0-2.39,1.2,1.2,0,1,0,0,2.39Z"/><path d="M54,19.26a1.25,1.25,0,0,0,0-2.49,1.25,1.25,0,1,0,0,2.49Z"/><path d="M60,19.23a1.22,1.22,0,0,0,0-2.43,1.22,1.22,0,1,0,0,2.43Z"/><circle cx="66.02" cy="18.02" r="1.1"/><path d="M72,19a.94.94,0,1,0-.93-.93A.93.93,0,0,0,72,19Z"/><circle cx="78.02" cy="18.02" r="0.7"/><path d="M84,18.43a.41.41,0,0,0,.41-.41A.41.41,0,0,0,84,17.6a.42.42,0,0,0-.42.42A.41.41,0,0,0,84,18.43Z"/><circle cx="90.02" cy="18.02" r="0.13"/><path d="M12,24.08a.06.06,0,0,0,.06-.06A.07.07,0,0,0,12,24,.07.07,0,0,0,12,24,.07.07,0,0,0,12,24.08Z"/><circle cx="18.02" cy="24.02" r="0.4"/><path d="M24,24.75a.74.74,0,1,0-.74-.73A.73.73,0,0,0,24,24.75Z"/><path d="M30,25.06A1,1,0,0,0,30,23a1,1,0,1,0,0,2.09Z"/><circle cx="36.02" cy="24.02" r="1.31"/><path d="M42,25.53A1.52,1.52,0,1,0,40.5,24,1.52,1.52,0,0,0,42,25.53Z"/><path d="M48,25.66a1.65,1.65,0,0,0,0-3.29,1.65,1.65,0,1,0,0,3.29Z"/><path d="M54,25.71A1.7,1.7,0,1,0,52.32,24,1.69,1.69,0,0,0,54,25.71Z"/><path d="M60,25.68a1.67,1.67,0,0,0,0-3.33,1.67,1.67,0,1,0,0,3.33Z"/><path d="M66,25.55A1.53,1.53,0,1,0,64.49,24,1.54,1.54,0,0,0,66,25.55Z"/><path d="M72,25.35A1.33,1.33,0,1,0,70.69,24,1.34,1.34,0,0,0,72,25.35Z"/><path d="M78,25.08A1.07,1.07,0,1,0,77,24,1.07,1.07,0,0,0,78,25.08Z"/><path d="M84,24.78a.77.77,0,1,0-.77-.76A.76.76,0,0,0,84,24.78Z"/><path d="M90,24.45a.43.43,0,0,0,.43-.43.44.44,0,0,0-.43-.44.44.44,0,0,0-.44.44A.44.44,0,0,0,90,24.45Z"/><circle cx="96.02" cy="24.02" r="0.08"/><path d="M6,30s0,0,0,0,0,0,0,0l0,0S6,30,6,30Z"/><path d="M12,30.3a.29.29,0,0,0,0-.57.29.29,0,1,0,0,.57Z"/><path d="M18,30.7a.69.69,0,1,0-.69-.68A.69.69,0,0,0,18,30.7Z"/><path d="M24,31.06A1,1,0,0,0,24,29a1,1,0,1,0,0,2.09Z"/><path d="M30,31.41A1.4,1.4,0,1,0,28.62,30,1.39,1.39,0,0,0,30,31.41Z"/><path d="M36,31.71A1.7,1.7,0,1,0,34.32,30,1.69,1.69,0,0,0,36,31.71Z"/><path d="M42,32a1.95,1.95,0,1,0-2-1.94A1.94,1.94,0,0,0,42,32Z"/><path d="M48,32.11A2.1,2.1,0,1,0,45.92,30,2.1,2.1,0,0,0,48,32.11Z"/><path d="M54,32.16A2.15,2.15,0,1,0,51.87,30,2.14,2.14,0,0,0,54,32.16Z"/><circle cx="60.02" cy="30.02" r="2.11"/><path d="M66,32a2,2,0,1,0-2-2A2,2,0,0,0,66,32Z"/><circle cx="72.02" cy="30.02" r="1.71"/><circle cx="78.02" cy="30.02" r="1.41"/><path d="M84,31.1a1.08,1.08,0,0,0,0-2.16,1.08,1.08,0,1,0,0,2.16Z"/><circle cx="90.02" cy="30.02" r="0.7"/><path d="M96,30.33a.32.32,0,0,0,0-.63.32.32,0,1,0,0,.63Z"/><path d="M102,30s0,0,0,0,0,0,0,0l0,0S102,30,102,30Z"/><circle cx="6.02" cy="36.02" r="0.08"/><circle cx="12.02" cy="36.02" r="0.48"/><path d="M18,36.93A.92.92,0,1,0,17.1,36,.91.91,0,0,0,18,36.93Z"/><circle cx="24.02" cy="36.02" r="1.31"/><path d="M30,37.71A1.7,1.7,0,1,0,28.32,36,1.69,1.69,0,0,0,30,37.71Z"/><path d="M36,38.06A2,2,0,1,0,34,36,2,2,0,0,0,36,38.06Z"/><path d="M42,38.18A2.17,2.17,0,1,0,39.85,36,2.16,2.16,0,0,0,42,38.18Z"/><path d="M48,38a2,2,0,1,0-2-2A2,2,0,0,0,48,38Z"/><path d="M54,37.88A1.87,1.87,0,1,0,52.15,36,1.86,1.86,0,0,0,54,37.88Z"/><path d="M60,38a1.95,1.95,0,1,0-2-1.94A1.94,1.94,0,0,0,60,38Z"/><path d="M66,38.16A2.15,2.15,0,1,0,63.87,36,2.14,2.14,0,0,0,66,38.16Z"/><circle cx="72.02" cy="36.02" r="2.06"/><path d="M78,37.75A1.73,1.73,0,1,0,76.29,36,1.74,1.74,0,0,0,78,37.75Z"/><path d="M84,37.36A1.35,1.35,0,1,0,82.67,36,1.34,1.34,0,0,0,84,37.36Z"/><path d="M90,37a1,1,0,1,0,0-1.9A.95.95,0,1,0,90,37Z"/><circle cx="96.02" cy="36.02" r="0.53"/><path d="M102,36.13a.11.11,0,0,0,.11-.11.11.11,0,0,0-.11-.12.12.12,0,0,0-.12.12A.11.11,0,0,0,102,36.13Z"/><path d="M6,42.22a.2.2,0,1,0-.2-.2A.2.2,0,0,0,6,42.22Z"/><path d="M12,42.67a.65.65,0,1,0-.65-.65A.65.65,0,0,0,12,42.67Z"/><path d="M18,43.1a1.08,1.08,0,0,0,0-2.16,1.08,1.08,0,0,0,0,2.16Z"/><path d="M24,43.53A1.52,1.52,0,1,0,22.5,42,1.52,1.52,0,0,0,24,43.53Z"/><path d="M30,44A1.95,1.95,0,1,0,28.07,42,1.94,1.94,0,0,0,30,44Z"/><path d="M36,44.18A2.17,2.17,0,1,0,33.85,42,2.16,2.16,0,0,0,36,44.18Z"/><circle cx="42.02" cy="42.02" r="1.76"/><circle cx="48.02" cy="42.02" r="1.41"/><path d="M54,43.28a1.27,1.27,0,0,0,0-2.53,1.27,1.27,0,1,0,0,2.53Z"/><path d="M60,43.4A1.38,1.38,0,1,0,58.64,42,1.38,1.38,0,0,0,60,43.4Z"/><path d="M66,43.75A1.73,1.73,0,1,0,64.29,42,1.74,1.74,0,0,0,66,43.75Z"/><path d="M72,44.16A2.15,2.15,0,1,0,69.87,42,2.14,2.14,0,0,0,72,44.16Z"/><circle cx="78.02" cy="42.02" r="1.98"/><path d="M84,43.56A1.55,1.55,0,1,0,82.47,42,1.54,1.54,0,0,0,84,43.56Z"/><path d="M90,43.15a1.13,1.13,0,1,0,0-2.26,1.13,1.13,0,0,0,0,2.26Z"/><path d="M96,42.7a.69.69,0,1,0-.69-.68A.69.69,0,0,0,96,42.7Z"/><path d="M102,42.25a.23.23,0,0,0,.23-.23.23.23,0,0,0-.23-.24.24.24,0,0,0-.24.24A.23.23,0,0,0,102,42.25Z"/><path d="M6,48.3a.29.29,0,0,0,0-.57.29.29,0,1,0,0,.57Z"/><circle cx="12.02" cy="48.02" r="0.75"/><path d="M18,49.21a1.2,1.2,0,0,0,0-2.39,1.2,1.2,0,1,0,0,2.39Z"/><path d="M24,49.66a1.65,1.65,0,0,0,0-3.29,1.65,1.65,0,1,0,0,3.29Z"/><path d="M30,50.11A2.1,2.1,0,1,0,27.92,48,2.1,2.1,0,0,0,30,50.11Z"/><path d="M36,50a2,2,0,1,0-2-2A2,2,0,0,0,36,50Z"/><circle cx="42.02" cy="48.02" r="1.41"/><path d="M48,48.93A.92.92,0,1,0,47.1,48,.91.91,0,0,0,48,48.93Z"/><circle cx="54.02" cy="48.02" r="0.67"/><circle cx="60.02" cy="48.02" r="0.88"/><circle cx="66.02" cy="48.02" r="1.36"/><path d="M72,49.93A1.92,1.92,0,1,0,70.1,48,1.92,1.92,0,0,0,72,49.93Z"/><path d="M78,50.15A2.13,2.13,0,1,0,75.89,48,2.14,2.14,0,0,0,78,50.15Z"/><path d="M84,49.71A1.7,1.7,0,1,0,82.32,48,1.69,1.69,0,0,0,84,49.71Z"/><path d="M90,49.26a1.25,1.25,0,0,0,0-2.49,1.25,1.25,0,1,0,0,2.49Z"/><path d="M96,48.8a.79.79,0,1,0-.79-.78A.78.78,0,0,0,96,48.8Z"/><path d="M102,48.35a.34.34,0,0,0,0-.67.34.34,0,1,0,0,.67Z"/><path d="M108,48h0s0,0,0,0a0,0,0,0,0,0,0Z"/><path d="M0,54H0s0,0,0,0a0,0,0,0,0,0,0Z"/><path d="M6,54.33a.32.32,0,0,0,0-.63.32.32,0,1,0,0,.63Z"/><path d="M12,54.8a.79.79,0,1,0-.79-.78A.78.78,0,0,0,12,54.8Z"/><path d="M18,55.26a1.25,1.25,0,0,0,0-2.49,1.25,1.25,0,1,0,0,2.49Z"/><path d="M24,55.71A1.7,1.7,0,1,0,22.32,54,1.69,1.69,0,0,0,24,55.71Z"/><path d="M30,56.16A2.15,2.15,0,1,0,27.87,54,2.14,2.14,0,0,0,30,56.16Z"/><path d="M36,55.88A1.87,1.87,0,1,0,34.15,54,1.86,1.86,0,0,0,36,55.88Z"/><path d="M42,55.28a1.27,1.27,0,0,0,0-2.53,1.27,1.27,0,1,0,0,2.53Z"/><circle cx="48.02" cy="54.02" r="0.67"/><path d="M54,54.25a.23.23,0,0,0,.23-.23.23.23,0,0,0-.23-.24.24.24,0,0,0-.24.24A.23.23,0,0,0,54,54.25Z"/><circle cx="60.02" cy="54.02" r="0.62"/><path d="M66,55.21a1.2,1.2,0,0,0,0-2.39,1.2,1.2,0,1,0,0,2.39Z"/><path d="M72,55.83A1.82,1.82,0,1,0,70.2,54,1.81,1.81,0,0,0,72,55.83Z"/><path d="M78,56.18A2.17,2.17,0,1,0,75.85,54,2.16,2.16,0,0,0,78,56.18Z"/><path d="M84,55.76A1.75,1.75,0,1,0,82.27,54,1.74,1.74,0,0,0,84,55.76Z"/><circle cx="90.02" cy="54.02" r="1.28"/><path d="M96,54.83a.81.81,0,0,0,.81-.81A.82.82,0,0,0,96,53.2a.82.82,0,0,0-.82.82A.82.82,0,0,0,96,54.83Z"/><path d="M102,54.38a.37.37,0,0,0,0-.73.37.37,0,1,0,0,.73Z"/><path d="M108,54h0s0,0,0,0a0,0,0,0,0,0,0Z"/><path d="M6,60.32a.31.31,0,0,0,.3-.3.3.3,0,0,0-.3-.3.29.29,0,0,0-.3.3A.3.3,0,0,0,6,60.32Z"/><circle cx="12.02" cy="60.02" r="0.75"/><path d="M18,61.23a1.22,1.22,0,0,0,0-2.43,1.22,1.22,0,1,0,0,2.43Z"/><path d="M24,61.68a1.67,1.67,0,0,0,0-3.33,1.67,1.67,0,1,0,0,3.33Z"/><circle cx="30.02" cy="60.02" r="2.11"/><path d="M36,62a1.95,1.95,0,1,0-2-1.94A1.94,1.94,0,0,0,36,62Z"/><path d="M42,61.4A1.38,1.38,0,1,0,40.64,60,1.38,1.38,0,0,0,42,61.4Z"/><circle cx="48.02" cy="60.02" r="0.88"/><circle cx="54.02" cy="60.02" r="0.62"/><path d="M60,60.87a.85.85,0,1,0-.85-.85A.85.85,0,0,0,60,60.87Z"/><path d="M66,61.36A1.35,1.35,0,1,0,64.67,60,1.34,1.34,0,0,0,66,61.36Z"/><path d="M72,61.93A1.92,1.92,0,1,0,70.1,60,1.92,1.92,0,0,0,72,61.93Z"/><path d="M78,62.15A2.13,2.13,0,1,0,75.89,60,2.14,2.14,0,0,0,78,62.15Z"/><path d="M84,61.71A1.7,1.7,0,1,0,82.32,60,1.69,1.69,0,0,0,84,61.71Z"/><path d="M90,61.26a1.25,1.25,0,0,0,0-2.49,1.25,1.25,0,1,0,0,2.49Z"/><path d="M96,60.8a.79.79,0,1,0-.79-.78A.78.78,0,0,0,96,60.8Z"/><path d="M102,60.35a.34.34,0,0,0,0-.67.34.34,0,1,0,0,.67Z"/><path d="M108,60h0s0,0,0,0a0,0,0,0,0,0,0Z"/><circle cx="6.02" cy="66.02" r="0.22"/><circle cx="12.02" cy="66.02" r="0.67"/><circle cx="18.02" cy="66.02" r="1.1"/><path d="M24,67.55A1.53,1.53,0,1,0,22.49,66,1.54,1.54,0,0,0,24,67.55Z"/><path d="M30,68a2,2,0,1,0-2-2A2,2,0,0,0,30,68Z"/><path d="M36,68.16A2.15,2.15,0,1,0,33.87,66,2.14,2.14,0,0,0,36,68.16Z"/><path d="M42,67.75A1.73,1.73,0,1,0,40.29,66,1.74,1.74,0,0,0,42,67.75Z"/><circle cx="48.02" cy="66.02" r="1.36"/><path d="M54,67.21a1.2,1.2,0,0,0,0-2.39,1.2,1.2,0,1,0,0,2.39Z"/><path d="M60,67.36A1.35,1.35,0,1,0,58.67,66,1.34,1.34,0,0,0,60,67.36Z"/><path d="M66,67.71A1.7,1.7,0,1,0,64.32,66,1.69,1.69,0,0,0,66,67.71Z"/><path d="M72,68.15A2.13,2.13,0,1,0,69.89,66,2.14,2.14,0,0,0,72,68.15Z"/><path d="M78,68a2,2,0,1,0-2-2A2,2,0,0,0,78,68Z"/><path d="M84,67.58A1.57,1.57,0,1,0,82.45,66,1.56,1.56,0,0,0,84,67.58Z"/><path d="M90,67.15a1.13,1.13,0,1,0,0-2.26,1.13,1.13,0,1,0,0,2.26Z"/><circle cx="96.02" cy="66.02" r="0.7"/><path d="M102,66.27a.26.26,0,0,0,.25-.25.25.25,0,0,0-.25-.25.25.25,0,0,0-.25.25A.25.25,0,0,0,102,66.27Z"/><path d="M6,72.12a.11.11,0,0,0,.1-.1.1.1,0,0,0-.1-.1.09.09,0,0,0-.1.1A.1.1,0,0,0,6,72.12Z"/><path d="M12,72.52a.51.51,0,0,0,.5-.5.5.5,0,0,0-.5-.5.5.5,0,0,0-.5.5A.5.5,0,0,0,12,72.52Z"/><path d="M18,73a.94.94,0,1,0-.93-.93A.93.93,0,0,0,18,73Z"/><path d="M24,73.35A1.33,1.33,0,1,0,22.69,72,1.34,1.34,0,0,0,24,73.35Z"/><circle cx="30.02" cy="72.02" r="1.71"/><circle cx="36.02" cy="72.02" r="2.06"/><path d="M42,74.16A2.15,2.15,0,1,0,39.87,72,2.14,2.14,0,0,0,42,74.16Z"/><path d="M48,73.93A1.92,1.92,0,1,0,46.1,72,1.92,1.92,0,0,0,48,73.93Z"/><path d="M54,73.83A1.82,1.82,0,1,0,52.2,72,1.81,1.81,0,0,0,54,73.83Z"/><path d="M60,73.93A1.92,1.92,0,1,0,58.1,72,1.92,1.92,0,0,0,60,73.93Z"/><path d="M66,74.15A2.13,2.13,0,1,0,63.89,72,2.14,2.14,0,0,0,66,74.15Z"/><path d="M72,74.11A2.1,2.1,0,1,0,69.92,72,2.1,2.1,0,0,0,72,74.11Z"/><path d="M78,73.76A1.75,1.75,0,1,0,76.27,72,1.74,1.74,0,0,0,78,73.76Z"/><circle cx="84.02" cy="72.02" r="1.36"/><circle cx="90.02" cy="72.02" r="0.97"/><circle cx="96.02" cy="72.02" r="0.53"/><circle cx="102.02" cy="72.02" r="0.13"/><path d="M6,78s0,0,0,0,0,0,0,0l0,0S6,78,6,78Z"/><path d="M12,78.32a.31.31,0,0,0,.3-.3.3.3,0,0,0-.3-.3.29.29,0,0,0-.3.3A.3.3,0,0,0,12,78.32Z"/><circle cx="18.02" cy="78.02" r="0.7"/><path d="M24,79.08A1.07,1.07,0,1,0,23,78,1.07,1.07,0,0,0,24,79.08Z"/><circle cx="30.02" cy="78.02" r="1.41"/><path d="M36,79.75A1.73,1.73,0,1,0,34.29,78,1.74,1.74,0,0,0,36,79.75Z"/><circle cx="42.02" cy="78.02" r="1.98"/><path d="M48,80.15A2.13,2.13,0,1,0,45.89,78,2.14,2.14,0,0,0,48,80.15Z"/><path d="M54,80.18A2.17,2.17,0,1,0,51.85,78,2.16,2.16,0,0,0,54,80.18Z"/><path d="M60,80.15A2.13,2.13,0,1,0,57.89,78,2.14,2.14,0,0,0,60,80.15Z"/><path d="M66,80a2,2,0,1,0-2-2A2,2,0,0,0,66,80Z"/><path d="M72,79.76A1.75,1.75,0,1,0,70.27,78,1.74,1.74,0,0,0,72,79.76Z"/><circle cx="78.02" cy="78.02" r="1.45"/><circle cx="84.02" cy="78.02" r="1.1"/><path d="M90,78.75a.74.74,0,1,0-.74-.73A.73.73,0,0,0,90,78.75Z"/><path d="M96,78.35a.34.34,0,0,0,0-.67.34.34,0,1,0,0,.67Z"/><path d="M102,78.05a0,0,0,0,0,0-.07,0,0,0,0,0,0,0A0,0,0,0,0,102,78.05Z"/><circle cx="12.02" cy="84.02" r="0.08"/><path d="M18,84.43a.41.41,0,0,0,.41-.41A.41.41,0,0,0,18,83.6a.42.42,0,0,0-.42.42A.41.41,0,0,0,18,84.43Z"/><path d="M24,84.78a.77.77,0,1,0-.77-.76A.76.76,0,0,0,24,84.78Z"/><path d="M30,85.1a1.08,1.08,0,1,0,0-2.16,1.08,1.08,0,0,0,0,2.16Z"/><path d="M36,85.36A1.35,1.35,0,1,0,34.67,84,1.34,1.34,0,0,0,36,85.36Z"/><path d="M42,85.56A1.55,1.55,0,1,0,40.47,84,1.54,1.54,0,0,0,42,85.56Z"/><path d="M48,85.71A1.7,1.7,0,1,0,46.32,84,1.69,1.69,0,0,0,48,85.71Z"/><path d="M54,85.76A1.75,1.75,0,1,0,52.27,84,1.74,1.74,0,0,0,54,85.76Z"/><path d="M60,85.71A1.7,1.7,0,1,0,58.32,84,1.69,1.69,0,0,0,60,85.71Z"/><path d="M66,85.58A1.57,1.57,0,1,0,64.45,84,1.56,1.56,0,0,0,66,85.58Z"/><circle cx="72.02" cy="84.02" r="1.36"/><circle cx="78.02" cy="84.02" r="1.1"/><path d="M84,84.82a.8.8,0,1,0-.8-.8A.8.8,0,0,0,84,84.82Z"/><path d="M90,84.47a.46.46,0,0,0,.45-.45.45.45,0,0,0-.45-.45.45.45,0,0,0-.45.45A.45.45,0,0,0,90,84.47Z"/><path d="M96,84.12a.11.11,0,0,0,.1-.1.1.1,0,0,0-.1-.1.09.09,0,0,0-.1.1A.1.1,0,0,0,96,84.12Z"/><circle cx="18.02" cy="90.02" r="0.13"/><path d="M24,90.45a.43.43,0,0,0,.43-.43.44.44,0,0,0-.43-.44.44.44,0,0,0-.44.44A.44.44,0,0,0,24,90.45Z"/><circle cx="30.02" cy="90.02" r="0.7"/><path d="M36,91a.95.95,0,1,0,0-1.9A1,1,0,0,0,36,91Z"/><path d="M42,91.15a1.13,1.13,0,1,0,0-2.26,1.13,1.13,0,1,0,0,2.26Z"/><path d="M48,91.26a1.25,1.25,0,0,0,0-2.49,1.25,1.25,0,1,0,0,2.49Z"/><circle cx="54.02" cy="90.02" r="1.28"/><path d="M60,91.26a1.25,1.25,0,0,0,0-2.49,1.25,1.25,0,1,0,0,2.49Z"/><path d="M66,91.15a1.13,1.13,0,1,0,0-2.26,1.13,1.13,0,1,0,0,2.26Z"/><circle cx="72.02" cy="90.02" r="0.97"/><path d="M78,90.75a.74.74,0,1,0-.74-.73A.73.73,0,0,0,78,90.75Z"/><path d="M84,90.47a.46.46,0,0,0,.45-.45.45.45,0,0,0-.45-.45.45.45,0,0,0-.45.45A.45.45,0,0,0,84,90.47Z"/><path d="M90,90.17a.15.15,0,0,0,.15-.15.15.15,0,0,0-.15-.15.14.14,0,0,0-.15.15A.15.15,0,0,0,90,90.17Z"/><circle cx="24.02" cy="96.02" r="0.08"/><path d="M30,96.33a.32.32,0,0,0,0-.63.32.32,0,1,0,0,.63Z"/><circle cx="36.02" cy="96.02" r="0.53"/><path d="M42,96.7a.69.69,0,1,0-.69-.68A.69.69,0,0,0,42,96.7Z"/><path d="M48,96.8a.79.79,0,1,0-.79-.78A.78.78,0,0,0,48,96.8Z"/><path d="M54,96.83a.81.81,0,0,0,.81-.81A.82.82,0,0,0,54,95.2a.82.82,0,0,0-.82.82A.82.82,0,0,0,54,96.83Z"/><path d="M60,96.8a.79.79,0,1,0-.79-.78A.78.78,0,0,0,60,96.8Z"/><circle cx="66.02" cy="96.02" r="0.7"/><circle cx="72.02" cy="96.02" r="0.53"/><path d="M78,96.35a.34.34,0,0,0,0-.67.34.34,0,1,0,0,.67Z"/><path d="M84,96.12a.11.11,0,0,0,.1-.1.1.1,0,0,0-.1-.1.09.09,0,0,0-.1.1A.1.1,0,0,0,84,96.12Z"/><path d="M30,102s0,0,0,0,0,0,0,0l0,0S30,102,30,102Z"/><path d="M36,102.13a.11.11,0,0,0,.11-.11.11.11,0,0,0-.11-.12.12.12,0,0,0-.12.12A.11.11,0,0,0,36,102.13Z"/><path d="M42,102.25a.23.23,0,0,0,.23-.23.23.23,0,0,0-.23-.24.24.24,0,0,0-.24.24A.23.23,0,0,0,42,102.25Z"/><path d="M48,102.35a.34.34,0,0,0,0-.67.34.34,0,1,0,0,.67Z"/><path d="M54,102.38a.37.37,0,0,0,0-.73.37.37,0,1,0,0,.73Z"/><path d="M60,102.35a.34.34,0,0,0,0-.67.34.34,0,1,0,0,.67Z"/><path d="M66,102.27a.26.26,0,0,0,.25-.25.25.25,0,0,0-.25-.25.25.25,0,0,0-.25.25A.25.25,0,0,0,66,102.27Z"/><circle cx="72.02" cy="102.02" r="0.13"/><path d="M78,102.05a0,0,0,0,0,0-.07,0,0,0,0,0,0,0A0,0,0,0,0,78,102.05Z"/><path d="M48,108s0,0,0,0,0,0,0,0a0,0,0,0,0,0,0S48,108,48,108Z"/><path d="M54,108s0,0,0,0,0,0,0,0a0,0,0,0,0,0,0S54,108,54,108Z"/><path d="M60,108s0,0,0,0,0,0,0,0a0,0,0,0,0,0,0S60,108,60,108Z"/></g></g></svg>